# xmcd
#
# Track frame offsets:
#	150
#	21024
#	34684
#	48826
#	60109
#	73425
#	92645
#	104197
#	118976
#	132131
#	145601
#	159018
#	174241
#	195557
#	205834
#	218364
#
# Disc length: 3065 seconds
#
# Revision: 0
# Processed by: cddbd v1.4PL0 Copyright (c) Steve Scherf et al.
# Submitted via: dBpowerAMP V4.0
#
DISCID=d40bf710
DTITLE=Various Artist - Classic Country Hits CD 4
DYEAR=1900
DGENRE=Country
TTITLE0=Ricky Skaggs - Somebody's Prayin'
TTITLE1=Glenn Campbell - Southern Nights
TTITLE2=Lefty Frizzell - Always Late (With Your Kisses)
TTITLE3=Charlie Rich - America The Beautiful
TTITLE4=Tanya Tucker - Delta Dawn
TTITLE5=Marty Robbins - El Paso City
TTITLE6=Dave and Sugar - Golden Tears
TTITLE7=Charlie Rich and Janie Fricke - On My Knees
TTITLE8=Merle Haggard - The Fightin' Side Of Me
TTITLE9=Moe Bandy - Yesterday Once More
TTITLE10=Jerry Lee Lewis - You Win Again
TTITLE11=B.J. Thomas - (Hey, Won't You Play) Another Somebody Done Somebody Wrong Song 
TTITLE12=Marty Robbins - El Paso
TTITLE13=Andy Williams - In The Summertime (You Don't Want My Love)
TTITLE14=Becky Hobbs and Moe Bandy - Let's Get Over Them Together
TTITLE15=Carl Smith - Loose Talk
EXTD=
EXTT0=
EXTT1=
EXTT2=
EXTT3=
EXTT4=
EXTT5=
EXTT6=
EXTT7=
EXTT8=
EXTT9=
EXTT10=
EXTT11=
EXTT12=
EXTT13=
EXTT14=
EXTT15=
PLAYORDER=
